<svg id="Layer_1" xmlns="http://www.w3.org/2000/svg" viewBox="0 0 497 497"><style>.st0{fill:#FFFFFF;}</style><title>components</title><path class="st0" d="M381.8 253.4c-12.6 0-23.5 6-31 14.8l-47.6-23.7c.6-3 1-6.3 1-9.5 0-16.7-8.4-31.5-21.2-40.4l30.4-86c22.3 0 40.5-18.4 40.5-40.7s-18.3-40.7-40.7-40.7c-22.3 0-40.6 18.2-40.6 40.6 0 15.2 8.7 28.5 21.2 35.3l-29.5 83.5c-3-.6-6.2-1-9.4-1-26 0-47 20.4-48.8 46l-83.6 19.5c-5-16.5-20.4-28.6-38.6-28.6-22.3 0-40.6 18.2-40.6 40.6S61.6 304 84 304c19.5 0 36-14 39.8-32.4l85.2-20c6.7 18.4 24 31.8 44.7 32.5l5 114.2c-12.6 7-21.4 20-21.4 35.5 0 22.3 18.2 40.6 40.6 40.6 22.2 0 40.5-18.2 40.5-40.6 0-21.8-17.4-39.7-39.2-40.5l-5-113c8.5-3.6 15.7-9.7 21-17l46.8 23.2c-.4 2.4-.6 5-.6 7.7 0 22.4 18.2 40.7 40.6 40.7 22.3 0 40.6-18.2 40.6-40.6-.2-22.4-18.5-40.6-40.8-40.6z"/></svg>