<svg baseProfile="basic" id="Layer_1" xmlns="http://www.w3.org/2000/svg" viewBox="0 0 498 498"><style>.st0{fill:#FFFFFF;}</style><title>docs</title><path class="st0" d="M423.6 82.6c-13.7 8-27.7 14.8-41.7 21.7L350 119.6c-6.2 3-13 2.4-19.6 2.4-21.6 0-43 1.6-64.7 1.3-4.2 0-5 1.3-5 5 .3 8.5 0 8.4 8.7 8.6 5.6 0 11 .7 16.7.6 3.4 0 4 1.4 4 4.3-.4 14.4-.2 29 1.7 43.2.5 3-1.6 3-3.4 2.8-7-.3-14 1.5-21 1.3-5.4 0-9.2 8-6 12.4 1 1.5 2.6.8 4 .8h66c4.6 0 8.7.8 12.8 2.5 21.6 9.3 35.8 16 56.7 26.6 4.5 2.5 7.8 4.2 9 5-15 6.3-29.7 12.4-44.3 18.3-5.3 2-8.6 3-16 6-12.8 5.5-24.2 4.7-36.6 3.7l-37-3c-2-.3-4.4 0-6.6-.4-8-1-8-1-8 7.4 0 9.2 0 9 9.2 9.7 7.5.5 15 1.5 22.6 2.2 1.6 0 2.7 0 2.3 2.4-2.5 14.4-2.7 29-3.7 43.7-.3 3.5-1.3 4.4-4.6 4.3-7-.3-13.8 0-20.6-.2-4.2-.2-5.3 1-5.3 5.2.2 42 0 83.7.3 125.6 0 5-1.4 5.8-6 5.7-8.6-.3-17.4-.2-26 0-3.2 0-4-1-4-4.2 0-42.5 0-85 .2-127.7 0-4.4-1.2-5.4-5.5-5.5-23.6-.5-47.2-1.4-70.8-2.2-8.5-.3-16.4-2.3-24.2-6.4-20-10.6-39.7-21.4-60-34l37.4-12c9.3-3 18.8-5 27.8-8.5 8.4-3 16.6-2.5 25-1.4 19.2 2.6 38.5 5 57.8 6.6h1c12.4 1.7 12.3 1.7 11.4-10.6-.2-3-1.5-4-4-4-12.4.2-24.5-2-36.7-2.2-3.6 0-4.5-1-4-4.5 1.3-14 1.2-28.2 1-42.3 0-3.8 2-3.5 4.5-3.7 11.5-1 23-1.2 34.6-.8 7 .2 4.2-4.6 4.6-7.6.6-4.5-2-3.2-5-3-10.8 1-21.7 1.7-32.6 2.6-14.7 1.3-29.5 2.6-44.2 4.3-5.5.6-10-1.3-15-3-21.4-7.2-42.3-15.6-63-24.4-1-.4-2-.4-2.5-2.2l15.5-8.2c17-8.5 34.3-16.7 51.8-24.3 2.4-1 4.8-1.5 7.5-1.5 27.5 0 54.8-.2 82.2.2 6.7 0 5-3.7 5.4-7.3.6-4.8-1.6-5.4-5.7-5.3-13 .3-25.8 0-38.6.3-4.4 0-5.2-1.4-5-5.4.4-15.6-1.4-31-2.8-46.6-.2-2 0-2.7 2-3 9-.6 18.3-1.7 27.6-2 6.3-.2 12.5-2 19-1.3 3 .3 3.4-2 3.4-4.4V33c-.2-3 .7-4.7 3.8-5.3 9.3-2 18.7-2.3 28 0 2.8.5 4.2 1.8 4 5.2-.3 8.8 0 17.8 0 26.7 0 2-.3 3.8 2.7 3.5L294 60c13.6-1.3 27.3-2.2 41-3.6 10.4-1 19.8 3.2 29.3 6.2 19.2 6 38 12.3 57 18.6 1 0 1.6.7 2.6 1.4z"/></svg>