<svg id="Layer_1" xmlns="http://www.w3.org/2000/svg" viewBox="0 0 498 498"><style>.st0{fill:#FFFFFF;}</style><title>pages</title><path class="st0" d="M309.4 438.2h-212V149.8h175v35h37v253.4zm-234-310.5v332.8h256V173.8l-47.4-46H75.3z"/><path class="st0" d="M118.7 76.7v38.5h22V98.8H316V134h36.8v253.3H343v22h32V123l-47.7-46z"/><path class="st0" d="M372.8 30.3H164.2v38.5h22V52.4h175.2v35.2h37V341h-9.8v22h31.8V76.4zM256.2 292.3c-5 0-9 2.3-12 5.7l-18.4-9c.2-1.3.4-2.6.4-3.8 0-6.5-3.3-12.2-8.2-15.6l11.7-33.3c8.6 0 15.6-7 15.6-15.7 0-8.6-7-15.7-15.7-15.7-8.6 0-15.7 7-15.7 15.6 0 6 3.2 11 8 13.7l-11.3 32.2c-1.2-.2-2.4-.4-3.6-.4-10 0-18 8-18.8 18l-32.3 7.4c-2-6.4-8-11-15-11-8.6 0-15.7 7-15.7 15.7 0 8.8 7 15.8 15.7 15.8 7.5 0 14-5.4 15.4-12.5l33-7.7c2.5 7 9.2 12.3 17 12.5l2 44.2c-5 2.7-8.2 7.8-8.2 13.7 0 8.5 7 15.6 15.7 15.6 8.5 0 15.6-7 15.6-15.7 0-8.5-6.7-15.4-15-15.7l-2-43.6c3.3-1.4 6-3.8 8.2-6.6l18 9-.2 3c0 8.7 7 15.8 15.7 15.8 8.6 0 15.7-7 15.7-15.7s-7.2-15.7-15.8-15.7z"/></svg>